<svg width="375" height="375" viewBox="0 0 375 375" version="1.1" xmlns="http://www.w3.org/2000/svg" xmlns:xlink="http://www.w3.org/1999/xlink">
<title>Group</title>
<desc>Created using Figma</desc>
<g id="Canvas" transform="translate(7136 -685)">
<g id="Group">
<g id="Canvas">
<g id="Vector">
<g id="Vector">
<use xlink:href="#path0_fill" transform="matrix(0.99176 0.128113 -0.129592 0.991567 -7098.5 712.424)" fill="#4A4A4B"/>
</g>
</g>
<g id="Group 4">
<g id="Line">
<g id="Vector">
<g id="Vector">
<use xlink:href="#path1_fill" transform="matrix(0.902569 -0.431941 0.21553 0.976074 -6825.66 921.348)" fill="#F2F2F2"/>
</g>
</g>
</g>
<g id="Line">
<g id="Vector">
<g id="Vector">
<use xlink:href="#path2_fill" transform="matrix(0.85513 -0.51966 0.284643 0.958129 -6811.96 855.689)" fill="#F2F2F2"/>
</g>
</g>
</g>
<g id="Line">
<g id="Vector">
<g id="Vector">
<use xlink:href="#path2_fill" transform="matrix(0.85513 -0.51966 0.284643 0.958129 -6816.21 892.171)" fill="#F2F2F2"/>
</g>
</g>
</g>
</g>
<g id="Group 6">
<g id="Polygon">
<g id="Vector">
<g id="Vector">
<use xlink:href="#path3_fill" transform="matrix(0.793708 0.607331 -0.616684 0.787966 -6811.84 690.85)" fill="#F2F2F2"/>
</g>
</g>
</g>
<g id="Polygon">
<g id="Vector">
<g id="Vector">
<use xlink:href="#path3_fill" transform="matrix(-0.933986 0.35566 0.366264 0.93115 -6886.56 678)" fill="#F2F2F2"/>
</g>
</g>
</g>
</g>
<g id="Group 3">
<g id="Line">
<g id="Vector">
<g id="Vector">
<use xlink:href="#path1_fill" transform="matrix(-0.813851 -0.582109 -0.381749 0.923819 -6938.1 914.296)" fill="#F2F2F2"/>
</g>
</g>
</g>
<g id="Line">
<g id="Vector">
<g id="Vector">
<use xlink:href="#path2_fill" transform="matrix(-0.751901 -0.660257 -0.446696 0.894145 -6940.2 847.255)" fill="#F2F2F2"/>
</g>
</g>
</g>
<g id="Line">
<g id="Vector">
<g id="Vector">
<use xlink:href="#path2_fill" transform="matrix(-0.751901 -0.660257 -0.446696 0.894145 -6942.34 883.921)" fill="#F2F2F2"/>
</g>
</g>
</g>
</g>
<g id="Vector">
<g id="Vector">
<use xlink:href="#path4_fill" transform="matrix(0.993421 0.114517 -0.115844 0.993267 -6936.84 704.821)" fill="#4A4A4B"/>
</g>
</g>
<g id="Group 5">
<g id="Group 2">
<g id="Polygon">
<g id="Vector">
<g id="Vector">
<use xlink:href="#path5_fill" transform="matrix(0.0814553 -0.997253 -0.995215 -0.0915629 -6896.55 1053.92)" fill="#F2F2F2"/>
</g>
</g>
</g>
<g id="Polygon">
<g id="Vector">
<g id="Vector">
<use xlink:href="#path3_fill" transform="matrix(0.146415 -0.988629 0.98814 0.15738 -6906.43 1052.32)" fill="#F2F2F2"/>
</g>
</g>
</g>
</g>
<g id="Ellipse">
<g id="Vector">
<use xlink:href="#path6_fill" transform="translate(-6917 1017.04)" fill="#F2F2F2"/>
</g>
</g>
</g>
</g>
</g>
</g>
<defs>
<path id="path0_fill" d="M 44.773 312.495C 28.8537 312.495 17.3407 309.998 10.2338 305.003C 3.41128 300.007 -4.5158e-14 293.837 -4.5158e-14 286.491C -4.5158e-14 282.377 0.426413 278.998 1.27923 276.354C 2.13205 273.415 3.41128 270.036 5.11692 266.216C 9.38101 270.33 14.6401 273.856 20.8941 276.794C 27.1481 279.439 33.6864 280.761 40.5089 280.761C 48.7528 280.761 54.7226 278.851 58.4181 275.031C 62.398 271.211 64.9564 265.628 66.0935 258.283C 67.5149 250.937 68.2256 240.799 68.2256 227.87L 68.2256 16.3079C 68.2256 10.1374 68.652 6.17057 69.5048 4.40755C 70.6419 2.35069 73.2003 1.17534 77.1802 0.881505C 81.4443 0.293832 90.1146 -4.83692e-14 103.191 -4.83692e-14L 103.191 235.804C 103.191 260.192 98.9271 279.145 90.3989 292.661C 81.8707 305.884 66.6621 312.495 44.773 312.495Z"/>
<path id="path1_fill" d="M 0 12.1984L 40.2381 12.1984L 40.2381 0L 0 0L 0 12.1984Z"/>
<path id="path2_fill" d="M 0 12.1786L 55.1577 12.1786L 55.1577 0L 0 0L 0 12.1786Z"/>
<path id="path3_fill" d="M 15.0606 5.61226C 18.1172 -1.87075 28.5551 -1.87075 31.6117 5.61226L 45.9794 40.7873C 48.4265 46.7782 44.0908 53.3713 37.704 53.3713L 8.96853 53.3713C 2.5815 53.3713 -1.75419 46.7782 0.692951 40.7873L 15.0606 5.61226Z"/>
<path id="path4_fill" d="M 77.1816 317.337C 57.8507 317.337 42.6418 312.783 31.5549 303.674C 20.7523 294.272 12.7925 278.111 7.67551 255.192C 2.5585 231.98 -5.76486e-14 199.217 -5.76486e-14 156.906C -5.76486e-14 118.12 2.84278 87.2678 8.52835 64.349C 14.4982 41.4302 23.453 24.9756 35.3927 14.9854C 47.3324 4.99512 62.8256 5.54383e-14 81.8722 5.54383e-14C 100.635 5.54383e-14 115.417 4.84821 126.22 14.5446C 137.022 23.9472 144.84 39.8141 149.673 62.1453C 154.79 84.4764 157.348 115.623 157.348 155.584C 157.348 195.838 154.505 227.719 148.82 251.225C 143.419 274.732 134.89 291.627 123.235 301.911C 111.579 312.195 96.2283 317.337 77.1816 317.337ZM 78.4609 280.756C 88.9792 280.756 97.2233 276.642 103.193 268.415C 109.163 260.187 113.427 247.112 115.986 229.188C 118.828 211.264 120.25 187.023 120.25 156.465C 120.25 125.907 119.113 102.106 116.838 85.0641C 114.564 68.0219 110.584 55.681 104.899 48.0414C 99.2132 40.4018 91.2534 36.582 81.0194 36.582C 70.7854 36.582 62.5413 40.8425 56.2872 49.3636C 50.3173 57.5909 45.911 71.1071 43.0682 89.9123C 40.2254 108.424 38.804 133.693 38.804 165.721C 38.804 193.928 39.9411 216.407 42.2154 233.155C 44.7739 249.609 48.8959 261.657 54.5815 269.296C 60.2671 276.936 68.2269 280.756 78.4609 280.756Z"/>
<path id="path5_fill" d="M 13.9518 5.82378C 16.9014 -1.94126 27.7081 -1.94126 30.6576 5.82378L 43.9998 40.9469C 46.2655 46.9114 41.9358 53.3298 35.6469 53.3298L 8.96267 53.3298C 2.67355 53.3298 -1.65603 46.9114 0.609686 40.9469L 13.9518 5.82378Z"/>
<path id="path6_fill" d="M 33 15C 33 23.2843 25.6127 30 16.5 30C 7.3873 30 0 23.2843 0 15C 0 6.71573 7.3873 0 16.5 0C 25.6127 0 33 6.71573 33 15Z"/>
</defs>
</svg>
