<svg width="529" height="516" viewBox="0 0 529 516" version="1.1" xmlns="http://www.w3.org/2000/svg" xmlns:xlink="http://www.w3.org/1999/xlink">
<title>Group 3.1</title>
<desc>Created using Figma</desc>
<g id="Canvas" transform="translate(6517 718)">
<g id="Group 3.1">
<g id="Vector" filter="url(#filter0_di)">
<use xlink:href="#path0_fill" transform="matrix(0.991941 0.126698 -0.131037 0.991377 -6460.65 -687.692)" fill="#4A4A4B"/>
</g>
<g id="Line" filter="url(#filter1_di)">
<g id="Vector">
<use xlink:href="#path1_fill" transform="matrix(0.905495 -0.428479 0.217684 0.974767 -6082.33 -411.594)" fill="#F2F2F2"/>
</g>
</g>
<g id="Line" filter="url(#filter2_di)">
<g id="Vector">
<use xlink:href="#path2_fill" transform="matrix(0.858782 -0.516023 0.287335 0.956337 -6063.26 -501.935)" fill="#F2F2F2"/>
</g>
</g>
<g id="Line" filter="url(#filter3_di)">
<g id="Vector">
<use xlink:href="#path2_fill" transform="matrix(0.858782 -0.516023 0.287335 0.956337 -6069.18 -451.739)" fill="#F2F2F2"/>
</g>
</g>
<g id="Line" filter="url(#filter4_di)">
<g id="Vector">
<use xlink:href="#path3_fill" transform="matrix(-0.901287 -0.43043 0.315656 -0.949691 -6236.58 -422.055)" fill="#F2F2F2"/>
</g>
</g>
<g id="Line" filter="url(#filter5_di)">
<g id="Vector">
<use xlink:href="#path4_fill" transform="matrix(-0.866296 -0.496673 0.361752 -0.93329 -6233.41 -455.802)" fill="#F2F2F2"/>
</g>
</g>
<g id="Line" filter="url(#filter6_di)">
<g id="Vector">
<use xlink:href="#path4_fill" transform="matrix(-0.866296 -0.496673 0.361752 -0.93329 -6237.23 -507.109)" fill="#F2F2F2"/>
</g>
</g>
<g id="Polygon" filter="url(#filter7_di)">
<g id="Vector">
<use xlink:href="#path5_fill" transform="matrix(0.922991 -0.389154 0.404757 0.912545 -6232.35 -704.805)" fill="#F2F2F2"/>
</g>
</g>
<g id="Polygon" filter="url(#filter8_di)">
<g id="Vector">
<use xlink:href="#path6_fill" transform="matrix(0.796099 0.602325 -0.621714 0.785478 -6061.74 -717.376)" fill="#F2F2F2"/>
</g>
</g>
<g id="Vector" filter="url(#filter9_di)">
<use xlink:href="#path7_fill" transform="matrix(0.993567 0.113249 -0.117141 0.993115 -6235.69 -698.153)" fill="#4A4A4B"/>
</g>
<g id="Group 2" filter="url(#filter10_di)">
<g id="Polygon">
<g id="Vector">
<use xlink:href="#path8_fill" transform="matrix(-0.00581187 -0.996333 -1.00365 -0.00444441 -6175.14 -216.005)" fill="#F2F2F2"/>
</g>
</g>
<g id="Polygon">
<g id="Vector">
<use xlink:href="#path9_fill" transform="matrix(0.147237 -0.983025 0.993694 0.156489 -6193.37 -220.02)" fill="#F2F2F2"/>
</g>
</g>
</g>
<g id="Ellipse" filter="url(#filter11_di)">
<use xlink:href="#path10_fill" transform="translate(-6196.95 -263.06)" fill="#F2F2F2"/>
</g>
</g>
</g>
<defs>
<filter id="filter0_di" filterUnits="userSpaceOnUse" x="-6517" y="-673" width="203" height="429" color-interpolation-filters="sRGB">
<feFlood flood-opacity="0" result="BackgroundImageFix"/>
<feColorMatrix in="SourceAlpha" type="matrix" values="0 0 0 0 0 0 0 0 0 0 0 0 0 0 0 0 0 0 255 0"/>
<feOffset dx="0" dy="4"/>
<feGaussianBlur stdDeviation="2"/>
<feColorMatrix type="matrix" values="0 0 0 0 0 0 0 0 0 0 0 0 0 0 0 0 0 0 0.25 0"/>
<feBlend mode="normal" in2="BackgroundImageFix" result="effect1_dropShadow"/>
<feBlend mode="normal" in="SourceGraphic" in2="effect1_dropShadow" result="shape"/>
<feColorMatrix in="SourceAlpha" type="matrix" values="0 0 0 0 0 0 0 0 0 0 0 0 0 0 0 0 0 0 255 0" result="hardAlpha"/>
<feOffset dx="0" dy="4"/>
<feGaussianBlur stdDeviation="2"/>
<feComposite in2="hardAlpha" operator="arithmetic" k2="-1" k3="1"/>
<feColorMatrix type="matrix" values="0 0 0 0 0 0 0 0 0 0 0 0 0 0 0 0 0 0 0.25 0"/>
<feBlend mode="normal" in2="shape" result="effect2_innerShadow"/>
</filter>
<filter id="filter1_di" filterUnits="userSpaceOnUse" x="-6087" y="-436" width="63" height="49" color-interpolation-filters="sRGB">
<feFlood flood-opacity="0" result="BackgroundImageFix"/>
<feColorMatrix in="SourceAlpha" type="matrix" values="0 0 0 0 0 0 0 0 0 0 0 0 0 0 0 0 0 0 255 0"/>
<feOffset dx="0" dy="4"/>
<feGaussianBlur stdDeviation="2"/>
<feColorMatrix type="matrix" values="0 0 0 0 0 0 0 0 0 0 0 0 0 0 0 0 0 0 0.25 0"/>
<feBlend mode="normal" in2="BackgroundImageFix" result="effect1_dropShadow"/>
<feBlend mode="normal" in="SourceGraphic" in2="effect1_dropShadow" result="shape"/>
<feColorMatrix in="SourceAlpha" type="matrix" values="0 0 0 0 0 0 0 0 0 0 0 0 0 0 0 0 0 0 255 0" result="hardAlpha"/>
<feOffset dx="0" dy="4"/>
<feGaussianBlur stdDeviation="2"/>
<feComposite in2="hardAlpha" operator="arithmetic" k2="-1" k3="1"/>
<feColorMatrix type="matrix" values="0 0 0 0 0 0 0 0 0 0 0 0 0 0 0 0 0 0 0.25 0"/>
<feBlend mode="normal" in2="shape" result="effect2_innerShadow"/>
</filter>
<filter id="filter2_di" filterUnits="userSpaceOnUse" x="-6068" y="-542" width="80" height="65" color-interpolation-filters="sRGB">
<feFlood flood-opacity="0" result="BackgroundImageFix"/>
<feColorMatrix in="SourceAlpha" type="matrix" values="0 0 0 0 0 0 0 0 0 0 0 0 0 0 0 0 0 0 255 0"/>
<feOffset dx="0" dy="4"/>
<feGaussianBlur stdDeviation="2"/>
<feColorMatrix type="matrix" values="0 0 0 0 0 0 0 0 0 0 0 0 0 0 0 0 0 0 0.25 0"/>
<feBlend mode="normal" in2="BackgroundImageFix" result="effect1_dropShadow"/>
<feBlend mode="normal" in="SourceGraphic" in2="effect1_dropShadow" result="shape"/>
<feColorMatrix in="SourceAlpha" type="matrix" values="0 0 0 0 0 0 0 0 0 0 0 0 0 0 0 0 0 0 255 0" result="hardAlpha"/>
<feOffset dx="0" dy="4"/>
<feGaussianBlur stdDeviation="2"/>
<feComposite in2="hardAlpha" operator="arithmetic" k2="-1" k3="1"/>
<feColorMatrix type="matrix" values="0 0 0 0 0 0 0 0 0 0 0 0 0 0 0 0 0 0 0.25 0"/>
<feBlend mode="normal" in2="shape" result="effect2_innerShadow"/>
</filter>
<filter id="filter3_di" filterUnits="userSpaceOnUse" x="-6074" y="-492" width="80" height="65" color-interpolation-filters="sRGB">
<feFlood flood-opacity="0" result="BackgroundImageFix"/>
<feColorMatrix in="SourceAlpha" type="matrix" values="0 0 0 0 0 0 0 0 0 0 0 0 0 0 0 0 0 0 255 0"/>
<feOffset dx="0" dy="4"/>
<feGaussianBlur stdDeviation="2"/>
<feColorMatrix type="matrix" values="0 0 0 0 0 0 0 0 0 0 0 0 0 0 0 0 0 0 0.25 0"/>
<feBlend mode="normal" in2="BackgroundImageFix" result="effect1_dropShadow"/>
<feBlend mode="normal" in="SourceGraphic" in2="effect1_dropShadow" result="shape"/>
<feColorMatrix in="SourceAlpha" type="matrix" values="0 0 0 0 0 0 0 0 0 0 0 0 0 0 0 0 0 0 255 0" result="hardAlpha"/>
<feOffset dx="0" dy="4"/>
<feGaussianBlur stdDeviation="2"/>
<feComposite in2="hardAlpha" operator="arithmetic" k2="-1" k3="1"/>
<feColorMatrix type="matrix" values="0 0 0 0 0 0 0 0 0 0 0 0 0 0 0 0 0 0 0.25 0"/>
<feBlend mode="normal" in2="shape" result="effect2_innerShadow"/>
</filter>
<filter id="filter4_di" filterUnits="userSpaceOnUse" x="-6288" y="-461" width="61" height="47" color-interpolation-filters="sRGB">
<feFlood flood-opacity="0" result="BackgroundImageFix"/>
<feColorMatrix in="SourceAlpha" type="matrix" values="0 0 0 0 0 0 0 0 0 0 0 0 0 0 0 0 0 0 255 0"/>
<feOffset dx="0" dy="4"/>
<feGaussianBlur stdDeviation="2"/>
<feColorMatrix type="matrix" values="0 0 0 0 0 0 0 0 0 0 0 0 0 0 0 0 0 0 0.25 0"/>
<feBlend mode="normal" in2="BackgroundImageFix" result="effect1_dropShadow"/>
<feBlend mode="normal" in="SourceGraphic" in2="effect1_dropShadow" result="shape"/>
<feColorMatrix in="SourceAlpha" type="matrix" values="0 0 0 0 0 0 0 0 0 0 0 0 0 0 0 0 0 0 255 0" result="hardAlpha"/>
<feOffset dx="0" dy="4"/>
<feGaussianBlur stdDeviation="2"/>
<feComposite in2="hardAlpha" operator="arithmetic" k2="-1" k3="1"/>
<feColorMatrix type="matrix" values="0 0 0 0 0 0 0 0 0 0 0 0 0 0 0 0 0 0 0.25 0"/>
<feBlend mode="normal" in2="shape" result="effect2_innerShadow"/>
</filter>
<filter id="filter5_di" filterUnits="userSpaceOnUse" x="-6303" y="-509" width="80" height="62" color-interpolation-filters="sRGB">
<feFlood flood-opacity="0" result="BackgroundImageFix"/>
<feColorMatrix in="SourceAlpha" type="matrix" values="0 0 0 0 0 0 0 0 0 0 0 0 0 0 0 0 0 0 255 0"/>
<feOffset dx="0" dy="4"/>
<feGaussianBlur stdDeviation="2"/>
<feColorMatrix type="matrix" values="0 0 0 0 0 0 0 0 0 0 0 0 0 0 0 0 0 0 0.25 0"/>
<feBlend mode="normal" in2="BackgroundImageFix" result="effect1_dropShadow"/>
<feBlend mode="normal" in="SourceGraphic" in2="effect1_dropShadow" result="shape"/>
<feColorMatrix in="SourceAlpha" type="matrix" values="0 0 0 0 0 0 0 0 0 0 0 0 0 0 0 0 0 0 255 0" result="hardAlpha"/>
<feOffset dx="0" dy="4"/>
<feGaussianBlur stdDeviation="2"/>
<feComposite in2="hardAlpha" operator="arithmetic" k2="-1" k3="1"/>
<feColorMatrix type="matrix" values="0 0 0 0 0 0 0 0 0 0 0 0 0 0 0 0 0 0 0.25 0"/>
<feBlend mode="normal" in2="shape" result="effect2_innerShadow"/>
</filter>
<filter id="filter6_di" filterUnits="userSpaceOnUse" x="-6306" y="-560" width="79" height="61" color-interpolation-filters="sRGB">
<feFlood flood-opacity="0" result="BackgroundImageFix"/>
<feColorMatrix in="SourceAlpha" type="matrix" values="0 0 0 0 0 0 0 0 0 0 0 0 0 0 0 0 0 0 255 0"/>
<feOffset dx="0" dy="4"/>
<feGaussianBlur stdDeviation="2"/>
<feColorMatrix type="matrix" values="0 0 0 0 0 0 0 0 0 0 0 0 0 0 0 0 0 0 0.25 0"/>
<feBlend mode="normal" in2="BackgroundImageFix" result="effect1_dropShadow"/>
<feBlend mode="normal" in="SourceGraphic" in2="effect1_dropShadow" result="shape"/>
<feColorMatrix in="SourceAlpha" type="matrix" values="0 0 0 0 0 0 0 0 0 0 0 0 0 0 0 0 0 0 255 0" result="hardAlpha"/>
<feOffset dx="0" dy="4"/>
<feGaussianBlur stdDeviation="2"/>
<feComposite in2="hardAlpha" operator="arithmetic" k2="-1" k3="1"/>
<feColorMatrix type="matrix" values="0 0 0 0 0 0 0 0 0 0 0 0 0 0 0 0 0 0 0.25 0"/>
<feBlend mode="normal" in2="shape" result="effect2_innerShadow"/>
</filter>
<filter id="filter7_di" filterUnits="userSpaceOnUse" x="-6216" y="-718" width="71" height="85" color-interpolation-filters="sRGB">
<feFlood flood-opacity="0" result="BackgroundImageFix"/>
<feColorMatrix in="SourceAlpha" type="matrix" values="0 0 0 0 0 0 0 0 0 0 0 0 0 0 0 0 0 0 255 0"/>
<feOffset dx="0" dy="4"/>
<feGaussianBlur stdDeviation="2"/>
<feColorMatrix type="matrix" values="0 0 0 0 0 0 0 0 0 0 0 0 0 0 0 0 0 0 0.25 0"/>
<feBlend mode="normal" in2="BackgroundImageFix" result="effect1_dropShadow"/>
<feBlend mode="normal" in="SourceGraphic" in2="effect1_dropShadow" result="shape"/>
<feColorMatrix in="SourceAlpha" type="matrix" values="0 0 0 0 0 0 0 0 0 0 0 0 0 0 0 0 0 0 255 0" result="hardAlpha"/>
<feOffset dx="0" dy="4"/>
<feGaussianBlur stdDeviation="2"/>
<feComposite in2="hardAlpha" operator="arithmetic" k2="-1" k3="1"/>
<feColorMatrix type="matrix" values="0 0 0 0 0 0 0 0 0 0 0 0 0 0 0 0 0 0 0.25 0"/>
<feBlend mode="normal" in2="shape" result="effect2_innerShadow"/>
</filter>
<filter id="filter8_di" filterUnits="userSpaceOnUse" x="-6107" y="-701" width="80" height="84" color-interpolation-filters="sRGB">
<feFlood flood-opacity="0" result="BackgroundImageFix"/>
<feColorMatrix in="SourceAlpha" type="matrix" values="0 0 0 0 0 0 0 0 0 0 0 0 0 0 0 0 0 0 255 0"/>
<feOffset dx="0" dy="4"/>
<feGaussianBlur stdDeviation="2"/>
<feColorMatrix type="matrix" values="0 0 0 0 0 0 0 0 0 0 0 0 0 0 0 0 0 0 0.25 0"/>
<feBlend mode="normal" in2="BackgroundImageFix" result="effect1_dropShadow"/>
<feBlend mode="normal" in="SourceGraphic" in2="effect1_dropShadow" result="shape"/>
<feColorMatrix in="SourceAlpha" type="matrix" values="0 0 0 0 0 0 0 0 0 0 0 0 0 0 0 0 0 0 255 0" result="hardAlpha"/>
<feOffset dx="0" dy="4"/>
<feGaussianBlur stdDeviation="2"/>
<feComposite in2="hardAlpha" operator="arithmetic" k2="-1" k3="1"/>
<feColorMatrix type="matrix" values="0 0 0 0 0 0 0 0 0 0 0 0 0 0 0 0 0 0 0.25 0"/>
<feBlend mode="normal" in2="shape" result="effect2_innerShadow"/>
</filter>
<filter id="filter9_di" filterUnits="userSpaceOnUse" x="-6272" y="-687" width="240" height="444" color-interpolation-filters="sRGB">
<feFlood flood-opacity="0" result="BackgroundImageFix"/>
<feColorMatrix in="SourceAlpha" type="matrix" values="0 0 0 0 0 0 0 0 0 0 0 0 0 0 0 0 0 0 255 0"/>
<feOffset dx="0" dy="4"/>
<feGaussianBlur stdDeviation="2"/>
<feColorMatrix type="matrix" values="0 0 0 0 0 0 0 0 0 0 0 0 0 0 0 0 0 0 0.5 0"/>
<feBlend mode="normal" in2="BackgroundImageFix" result="effect1_dropShadow"/>
<feBlend mode="normal" in="SourceGraphic" in2="effect1_dropShadow" result="shape"/>
<feColorMatrix in="SourceAlpha" type="matrix" values="0 0 0 0 0 0 0 0 0 0 0 0 0 0 0 0 0 0 255 0" result="hardAlpha"/>
<feOffset dx="0" dy="4"/>
<feGaussianBlur stdDeviation="4"/>
<feComposite in2="hardAlpha" operator="arithmetic" k2="-1" k3="1"/>
<feColorMatrix type="matrix" values="0 0 0 0 0 0 0 0 0 0 0 0 0 0 0 0 0 0 0.25 0"/>
<feBlend mode="normal" in2="shape" result="effect2_innerShadow"/>
</filter>
<filter id="filter10_di" filterUnits="userSpaceOnUse" x="-6254" y="-278" width="146" height="76" color-interpolation-filters="sRGB">
<feFlood flood-opacity="0" result="BackgroundImageFix"/>
<feColorMatrix in="SourceAlpha" type="matrix" values="0 0 0 0 0 0 0 0 0 0 0 0 0 0 0 0 0 0 255 0"/>
<feOffset dx="0" dy="4"/>
<feGaussianBlur stdDeviation="2"/>
<feColorMatrix type="matrix" values="0 0 0 0 0 0 0 0 0 0 0 0 0 0 0 0 0 0 0.5 0"/>
<feBlend mode="normal" in2="BackgroundImageFix" result="effect1_dropShadow"/>
<feBlend mode="normal" in="SourceGraphic" in2="effect1_dropShadow" result="shape"/>
<feColorMatrix in="SourceAlpha" type="matrix" values="0 0 0 0 0 0 0 0 0 0 0 0 0 0 0 0 0 0 255 0" result="hardAlpha"/>
<feOffset dx="0" dy="4"/>
<feGaussianBlur stdDeviation="2"/>
<feComposite in2="hardAlpha" operator="arithmetic" k2="-1" k3="1"/>
<feColorMatrix type="matrix" values="0 0 0 0 0 0 0 0 0 0 0 0 0 0 0 0 0 0 0.5 0"/>
<feBlend mode="normal" in2="shape" result="effect2_innerShadow"/>
</filter>
<filter id="filter11_di" filterUnits="userSpaceOnUse" x="-6201" y="-264" width="48" height="42" color-interpolation-filters="sRGB">
<feFlood flood-opacity="0" result="BackgroundImageFix"/>
<feColorMatrix in="SourceAlpha" type="matrix" values="0 0 0 0 0 0 0 0 0 0 0 0 0 0 0 0 0 0 255 0"/>
<feOffset dx="0" dy="4"/>
<feGaussianBlur stdDeviation="2"/>
<feColorMatrix type="matrix" values="0 0 0 0 0 0 0 0 0 0 0 0 0 0 0 0 0 0 0.25 0"/>
<feBlend mode="normal" in2="BackgroundImageFix" result="effect1_dropShadow"/>
<feBlend mode="normal" in="SourceGraphic" in2="effect1_dropShadow" result="shape"/>
<feColorMatrix in="SourceAlpha" type="matrix" values="0 0 0 0 0 0 0 0 0 0 0 0 0 0 0 0 0 0 255 0" result="hardAlpha"/>
<feOffset dx="0" dy="4"/>
<feGaussianBlur stdDeviation="2"/>
<feComposite in2="hardAlpha" operator="arithmetic" k2="-1" k3="1"/>
<feColorMatrix type="matrix" values="0 0 0 0 0 0 0 0 0 0 0 0 0 0 0 0 0 0 0.25 0"/>
<feBlend mode="normal" in2="shape" result="effect2_innerShadow"/>
</filter>
<path id="path0_fill" d="M 62.2917 430.05C 40.1435 430.05 24.1257 426.613 14.2381 419.739C 4.74604 412.865 -2.47682e-06 404.373 -2.47682e-06 394.263C -2.47682e-06 388.602 0.593256 383.952 1.77976 380.313C 2.96627 376.269 4.74603 371.619 7.11905 366.362C 13.0516 372.023 20.3684 376.875 29.0695 380.919C 37.7705 384.558 46.8671 386.378 56.3591 386.378C 67.8287 386.378 76.1343 383.75 81.2758 378.493C 86.8128 373.236 90.3724 365.553 91.9544 355.444C 93.9319 345.334 94.9206 331.383 94.9206 313.591L 94.9206 22.4427C 94.9206 13.9509 95.5139 8.49182 96.7004 6.06559C 98.2824 3.23498 101.842 1.61749 107.379 1.21311C 113.312 0.404368 125.374 3.21367e-06 143.567 3.21367e-06L 143.567 324.509C 143.567 358.072 137.635 384.154 125.77 402.755C 113.905 420.952 92.7454 430.05 62.2917 430.05Z"/>
<path id="path1_fill" d="M 0 16.8066L 55.8116 16.8066L 55.8116 0L 0 0L 0 16.8066Z"/>
<path id="path2_fill" d="M 0 16.7882L 76.4272 16.7882L 76.4272 0L 0 0L 0 16.7882Z"/>
<path id="path3_fill" d="M 0 16.8324L 51.7452 16.8324L 51.7452 0L 0 0L 0 16.8324Z"/>
<path id="path4_fill" d="M 0 16.8242L 74.572 16.8242L 74.572 0L 0 0L 0 16.8242Z"/>
<path id="path5_fill" d="M 19.3597 8.03692C 23.4526 -2.67897 38.4482 -2.67897 42.541 8.03692L 61.0547 56.5074C 64.1987 64.7385 58.1907 73.5961 49.4642 73.5961L 12.4367 73.5961C 3.70986 73.5961 -2.29794 64.7385 0.846011 56.5074L 19.3597 8.03692Z"/>
<path id="path6_fill" d="M 20.8944 7.74646C 25.1349 -2.58215 39.6161 -2.58215 43.8566 7.74646L 63.7897 56.2977C 67.1846 64.5667 61.1695 73.667 52.3088 73.667L 12.4425 73.667C 3.58146 73.667 -2.43367 64.5667 0.961364 56.2977L 20.8944 7.74646Z"/>
<path id="path7_fill" d="M 107.385 436.697C 80.4893 436.697 59.3287 430.43 43.9033 417.895C 28.8733 404.956 17.7986 382.717 10.6792 351.177C 3.55971 319.234 6.03523e-06 274.149 6.03523e-06 215.922C 6.03523e-06 162.548 3.95524 120.092 11.8657 88.5525C 20.1718 57.0132 32.6308 34.3697 49.2428 20.6218C 65.8549 6.87393 87.411 -7.06965e-06 113.911 -7.06965e-06C 140.016 -7.06965e-06 160.583 6.67177 175.613 20.0153C 190.643 32.9545 201.52 54.7893 208.244 85.5199C 215.363 116.25 218.923 159.111 218.923 214.103C 218.923 269.499 214.968 313.371 207.057 345.719C 199.542 378.066 187.677 401.317 171.46 415.469C 155.243 429.621 133.885 436.697 107.385 436.697ZM 109.165 386.356C 123.799 386.356 135.269 380.695 143.575 369.373C 151.882 358.051 157.814 340.058 161.374 315.392C 165.329 290.727 167.307 257.368 167.307 215.316C 167.307 173.264 165.725 140.511 162.561 117.059C 159.396 93.6068 153.859 76.6242 145.949 66.1111C 138.038 55.598 126.963 50.3415 112.725 50.3415C 98.4857 50.3415 87.0155 56.2045 78.3139 67.9307C 70.0079 79.2524 63.8773 97.8525 59.922 123.731C 55.9668 149.205 53.9891 183.979 53.9891 228.053C 53.9891 266.87 55.5712 297.803 58.7354 320.851C 62.2952 343.495 68.0303 360.073 75.9408 370.586C 83.8513 381.099 94.926 386.356 109.165 386.356Z"/>
<path id="path8_fill" d="M 19.2779 8.0697C 23.3536 -2.6899 38.2858 -2.6899 42.3613 8.0697L 60.7968 56.7379C 63.9274 65.0026 57.9449 73.8963 49.2553 73.8963L 12.3842 73.8963C 3.69418 73.8963 -2.28823 65.0026 0.842436 56.7379L 19.2779 8.0697Z"/>
<path id="path9_fill" d="M 20.8403 7.76599C 25.0698 -2.58866 39.5135 -2.58866 43.7431 7.76599L 63.6245 56.4396C 67.0107 64.7295 61.0111 73.8527 52.1734 73.8527L 12.4103 73.8527C 3.57218 73.8527 -2.42737 64.7295 0.958875 56.4396L 20.8403 7.76599Z"/>
<path id="path10_fill" d="M 38.9629 16.511C 38.9629 25.6298 30.2408 33.022 19.4814 33.022C 8.72214 33.022 0 25.6298 0 16.511C 0 7.39223 8.72214 0 19.4814 0C 30.2408 0 38.9629 7.39223 38.9629 16.511Z"/>
</defs>
</svg>
